<svg xmlns="http://www.w3.org/2000/svg" width="1280" height="250" viewBox="0 0 1280 250" role="img" aria-labelledby="title desc">
  <title id="title">Stephanie De Padova — Talent Acquisition Specialist</title>
  <desc id="desc">Talent Acquisition, IT and Engineering Recruitment, Employer Branding, Digital HR and AI.</desc>

  <rect x="1" y="1" width="1278" height="248" rx="18" fill="#FFFFFF" stroke="#E5E7EB" stroke-width="2"/>
  <rect x="0" y="34" width="5" height="182" rx="2.5" fill="#2563EB"/>

  <line x1="68" y1="48" x2="122" y2="48" stroke="#2563EB" stroke-width="4" stroke-linecap="round"/>

  <text x="68" y="112" fill="#111827" font-family="Arial, Helvetica, sans-serif" font-size="62" font-weight="700">Stephanie De Padova</text>
  <text x="68" y="151" fill="#4B5563" font-family="Arial, Helvetica, sans-serif" font-size="29">Talent Acquisition Specialist</text>

  <text x="68" y="185" fill="#2563EB" font-family="Arial, Helvetica, sans-serif" font-size="18" font-weight="700">IT &amp; ENGINEERING RECRUITMENT</text>
  <text x="68" y="210" fill="#6B7280" font-family="Arial, Helvetica, sans-serif" font-size="17">EMPLOYER BRANDING  ·  DIGITAL HR  ·  AI</text>

  <line x1="68" y1="228" x2="470" y2="228" stroke="#E5E7EB" stroke-width="1"/>

  <g opacity=".45">
    <circle cx="1110" cy="78" r="3" fill="#2563EB"/>
    <circle cx="1140" cy="78" r="3" fill="#2563EB"/>
    <circle cx="1170" cy="78" r="3" fill="#2563EB"/>
    <circle cx="1200" cy="78" r="3" fill="#2563EB"/>
    <circle cx="1110" cy="108" r="3" fill="#2563EB"/>
    <circle cx="1140" cy="108" r="3" fill="#2563EB"/>
    <circle cx="1170" cy="108" r="3" fill="#2563EB"/>
    <circle cx="1200" cy="108" r="3" fill="#2563EB"/>
    <circle cx="1110" cy="138" r="3" fill="#2563EB"/>
    <circle cx="1140" cy="138" r="3" fill="#2563EB"/>
    <circle cx="1170" cy="138" r="3" fill="#2563EB"/>
    <circle cx="1200" cy="138" r="3" fill="#2563EB"/>
  </g>

  <text x="1210" y="228" text-anchor="end" fill="#9CA3AF" font-family="Arial, Helvetica, sans-serif" font-size="11" letter-spacing="1.5">TALENT · TECHNOLOGY · RECRUITMENT</text>
</svg>